<svg width="31" height="31" viewBox="0 0 31 31" fill="none" xmlns="http://www.w3.org/2000/svg">
	<path
		d="M27.2675 18.1433C26.8751 19.7371 26.1718 21.2377 25.1979 22.559C24.224 23.8803 22.9988 24.9962 21.5925 25.8427C15.6886 29.4003 7.99177 27.4916 4.43419 21.5878C2.71088 18.7279 2.20366 15.3681 3.00733 12.1272C3.811 8.88638 5.82832 6.15256 8.68915 4.42948C14.593 0.871902 22.2899 2.78059 25.8474 8.68444C26.6953 10.0899 27.2572 11.649 27.5008 13.2722C27.7445 14.8955 27.6652 16.5508 27.2675 18.1433ZM4.94853 12.6086C4.61279 13.9467 4.54584 15.3381 4.75155 16.7022C4.95726 18.0663 5.43156 19.3761 6.14696 20.5557C9.13545 25.5137 15.6006 27.117 20.5604 24.13C25.5185 21.1415 27.1217 14.6763 24.1347 9.71653C21.1462 4.75846 14.681 3.15521 9.72124 6.14225C8.53774 6.85106 7.50654 7.78752 6.68731 8.89746C5.86808 10.0074 5.27709 11.2688 4.94853 12.6086ZM24.9911 9.20048L24.9935 9.19078L24.9911 9.20048Z"
		fill="black" fill-opacity="0.75" />
	<path
		d="M15.1374 18.4369C15.006 18.437 14.8759 18.4112 14.7546 18.361C14.6333 18.3107 14.5231 18.2369 14.4304 18.1439L9.83435 13.5479C9.64684 13.3604 9.5415 13.1061 9.5415 12.8409C9.5415 12.5757 9.64684 12.3214 9.83435 12.1339C10.0219 11.9464 10.2762 11.8411 10.5414 11.8411C10.8065 11.8411 11.0608 11.9464 11.2484 12.1339L15.1374 16.0229L19.0264 12.1339C19.1192 12.0411 19.2294 11.9674 19.3507 11.9172C19.472 11.8669 19.6021 11.8411 19.7334 11.8411C19.8647 11.8411 19.9947 11.8669 20.116 11.9172C20.2373 11.9674 20.3475 12.0411 20.4404 12.1339C20.5332 12.2268 20.6068 12.337 20.6571 12.4583C20.7073 12.5796 20.7332 12.7096 20.7332 12.8409C20.7332 12.9722 20.7073 13.1022 20.6571 13.2235C20.6068 13.3448 20.5332 13.4551 20.4404 13.5479L15.8444 18.1439C15.7516 18.2369 15.6414 18.3107 15.5201 18.361C15.3988 18.4112 15.2687 18.437 15.1374 18.4369Z"
		fill="black" fill-opacity="0.75" />
</svg>