<svg xmlns="http://www.w3.org/2000/svg" enable-background="new 0 0 32 32" viewBox="0 0 32 32" fill="#ffffff">
	<path
		d="M29.99215,14.50564c-0.82791,0-1.4996,0.67121-1.4996,1.4996v11.99681c0,0.27092-0.22845,0.49987-0.49987,0.49987H3.99907c-0.27092,0-0.49987-0.22894-0.49987-0.49987V4.00843c0-0.27092,0.22894-0.49987,0.49987-0.49987h11.99681c0.82839,0,1.4996-0.67121,1.4996-1.4996s-0.67121-1.4996-1.4996-1.4996H3.99907C2.06989,0.50936,0.5,2.07926,0.5,4.00843v23.99362c0,1.92917,1.56989,3.49907,3.49907,3.49907h23.99362c1.92917,0,3.49907-1.56989,3.49907-3.49907V16.00524C31.49175,15.17685,30.82006,14.50564,29.99215,14.50564z" />
	<path
		d="M15.02299,7.43818v8.04034c0.02978,0.38954,0.15407,0.77909,0.44898,1.05062c0.27111,0.28215,0.6609,0.44367,1.05062,0.44898h8.04034c1.96798-0.03338,1.97366-2.96503-0.00006-2.9992c0.00006,0-4.41966,0-4.41966,0L31.05242,3.06923c1.36536-1.4074-0.69714-3.4962-2.12059-2.12047c0.00006-0.00006-10.91012,10.90963-10.91012,10.90963V7.43818C17.99077,5.47075,15.05576,5.46447,15.02299,7.43818z" />
</svg>