<svg fill="white" xmlns="http://www.w3.org/2000/svg" viewBox="0 0 80 80">
	<path
		d="M75 56.5c0-8.647-5.97-15.906-14-17.923V5H21.146l-.59.617c-1.38 1.442-3.633 3.863-6.088 6.503-3.057 3.287-6.523 7.012-8.91 9.493L5 22.194V75h51.5C66.701 75 75 66.701 75 56.5zm-4 0C71 64.495 64.495 71 56.5 71S42 64.495 42 56.5 48.505 42 56.5 42 71 48.505 71 56.5zM9 71V23.804c2.37-2.48 5.559-5.908 8.396-8.96 2.118-2.277 4.083-4.389 5.461-5.844H57v29.025c-.168-.004-.331-.025-.5-.025C46.299 38 38 46.299 38 56.5c0 5.875 2.762 11.109 7.046 14.5H9z" />
	<path d="M14 29h38v4H14zM14 41h26v4H14zM14 53h21v4H14zM49 54.5h15v4H49z" />
</svg>